# This file uses centimeters as units for non-parametric coordinates.

mtllib body.mtl
g default
v -0.269356 -0.480069 0.171413
v 0.269356 -0.480069 0.171413
v -0.194078 0.363527 0.153735
v 0.197153 0.362139 0.156003
v -0.193764 0.349414 -0.167375
v 0.189582 0.350840 -0.165115
v -0.261624 -0.484251 -0.170119
v 0.261624 -0.484251 -0.170119
v -0.111105 -0.707506 -0.186716
v 0.111105 -0.707506 -0.186716
v 0.111105 -0.707392 0.186649
v -0.111105 -0.707392 0.186649
v -0.000000 -0.409961 0.350678
v -0.000000 -0.707391 0.193051
v 0.000000 -0.707506 -0.193131
v -0.000000 -0.425255 -0.272896
v -0.000000 0.383116 -0.195189
v 0.000000 0.384141 0.193020
v 0.272517 -1.424819 -0.071735
v 0.287274 -1.423527 0.055801
v 0.160227 -1.434686 0.070616
v 0.145469 -1.435978 -0.056921
v -0.272420 -1.423716 -0.071737
v -0.287011 -1.420989 0.055808
v -0.145733 -1.438515 -0.056928
v -0.160323 -1.435788 0.070617
v -0.313941 -1.054862 -0.051163
v -0.169665 -1.054863 -0.092543
v -0.144138 -1.054863 0.125722
v -0.319708 -1.054862 0.142173
v 0.313941 -1.054862 -0.051163
v 0.169665 -1.054863 -0.092543
v 0.144138 -1.054863 0.125722
v 0.319708 -1.054862 0.142173
v -0.245215 0.027356 0.186786
v -0.000000 0.038437 0.337207
v 0.245215 0.027356 0.186786
v 0.238209 0.029216 -0.182664
v 0.000000 0.002157 -0.218840
v -0.238209 0.029216 -0.182664
v 0.393116 0.068570 0.122637
v 0.378264 0.050480 -0.108589
v 0.370330 0.282084 -0.126198
v 0.385182 0.300174 0.105028
v -0.384202 0.047199 -0.104936
v -0.384969 0.072218 0.126368
v -0.379244 0.303455 0.101375
v -0.378477 0.278436 -0.129929
v 0.954287 -0.306530 0.103733
v 0.954287 -0.333827 0.002031
v 1.022478 -0.277557 -0.009028
v 1.022478 -0.250256 0.092357
v -0.954287 -0.333827 0.002031
v -0.954287 -0.306530 0.103733
v -1.022478 -0.250256 0.092357
v -1.022478 -0.277557 -0.009028
v 0.709371 -0.067368 0.076930
v 0.701297 -0.101082 -0.087785
v 0.765234 0.050818 -0.122009
v 0.773308 0.084532 0.042706
v -0.705094 -0.065571 0.076748
v -0.701392 -0.101174 -0.087798
v -0.769511 0.049021 -0.121828
v -0.773212 0.084624 0.042719
v -0.193427 0.389769 -0.010047
v -0.000000 0.411789 -0.001318
v 0.192642 0.389813 -0.007053
v 0.376113 0.339096 -0.014232
v 0.782513 0.099134 -0.046740
v 1.046083 -0.263592 0.041315
v 0.974033 -0.327302 0.054910
v 0.692092 -0.115685 0.001661
v 0.387333 0.011559 0.010671
v 0.345641 -0.013035 0.002062
v 0.387302 -0.425289 -0.000021
v 0.353995 -1.054861 0.046659
v 0.306208 -1.421862 -0.011035
v 0.126535 -1.437643 0.009915
v 0.110595 -1.054863 0.046673
v 0.045835 -0.736026 -0.000021
v -0.000000 -0.736025 -0.000025
v -0.045835 -0.736026 -0.000021
v -0.110595 -1.054863 0.046673
v -0.126790 -1.440217 0.009911
v -0.305953 -1.419288 -0.011031
v -0.353995 -1.054861 0.046659
v -0.387302 -0.425289 -0.000021
v -0.344873 -0.012907 0.004632
v -0.385772 0.011818 0.015892
v -0.689135 -0.114479 0.001523
v -0.974033 -0.327302 0.054910
v -1.046083 -0.263592 0.041315
v -0.785470 0.097929 -0.046602
v -0.377675 0.338836 -0.019453
v -0.194577 0.180829 -0.210421
v 0.000000 0.177939 -0.247672
v 0.189488 0.182939 -0.210239
v 0.371221 0.162536 -0.165282
v 0.731594 -0.032114 -0.139011
v 0.996241 -0.313769 -0.011079
v 1.025583 -0.306232 0.048468
v 0.996241 -0.283982 0.108873
v 0.743011 0.015564 0.093932
v 0.392225 0.188118 0.161721
v 0.199220 0.198404 0.250046
v -0.000000 0.179501 0.307928
v -0.194162 0.200554 0.249638
v -0.382265 0.193018 0.161776
v -0.739919 0.016900 0.093812
v -0.996241 -0.283982 0.108873
v -1.025583 -0.306232 0.048468
v -0.996241 -0.313769 -0.011079
v -0.734685 -0.033450 -0.138891
v -0.381181 0.157636 -0.165337
v -0.252313 -0.284359 0.178663
v -0.000000 -0.268171 0.352000
v 0.252313 -0.284359 0.178663
v 0.378873 -0.296471 -0.000058
v 0.249560 -0.284879 -0.171143
v -0.000000 -0.266700 -0.244510
v -0.249560 -0.284879 -0.171143
v -0.378873 -0.296471 -0.000058
v -0.204195 -0.586373 -0.196334
v -0.000000 -0.537229 -0.271278
v 0.204195 -0.586373 -0.196334
v 0.235194 -1.054862 -0.093477
v 0.205936 -1.430666 -0.090742
v 0.215574 -1.429823 -0.000263
v 0.226807 -1.428839 0.089622
v 0.217502 -1.054862 0.174937
v 0.202566 -0.633711 0.194569
v -0.000000 -0.552730 0.311438
v -0.202566 -0.633711 0.194569
v -0.217502 -1.054862 0.174937
v -0.226689 -1.427824 0.089628
v -0.215579 -1.429843 -0.000261
v -0.206055 -1.431680 -0.090748
v -0.235194 -1.054862 -0.093477
v -0.000000 -0.147138 0.339350
v -0.233342 -0.166654 0.169899
v -0.349509 -0.176160 -0.000094
v -0.231187 -0.161451 -0.152965
v -0.000000 -0.165600 -0.194075
v 0.231187 -0.161451 -0.152965
v 0.349509 -0.176160 -0.000094
v 0.233342 -0.166654 0.169899
vt 0.263879 0.395167
vt 0.191649 0.383583
vt 0.190235 0.335418
vt 0.296456 0.335491
vt 0.582028 0.460976
vt 0.195614 0.530125
vt 0.269370 0.520096
vt 0.520389 0.458623
vt 0.494952 0.346627
vt 0.582327 0.332635
vt 0.582303 0.392188
vt 0.517386 0.398485
vt 0.196263 0.000003
vt 0.179730 0.000481
vt 0.581315 0.083705
vt 0.542223 0.082997
vt 0.261743 0.018487
vt 0.239998 0.018487
vt 0.239998 0.000003
vt 0.972077 0.000003
vt 0.311751 0.035108
vt 0.290280 0.035108
vt 0.290280 0.016607
vt 0.059100 0.535761
vt 0.581572 0.145903
vt 0.481975 0.845041
vt 0.129989 0.017817
vt 0.099764 0.029802
vt 0.087710 0.000003
vt 0.507996 0.527716
vt 0.258588 0.093718
vt 0.183932 0.135619
vt 0.181879 0.069677
vt 0.314162 0.845041
vt 0.051051 0.005748
vt 0.032267 0.031838
vt 0.624776 0.532852
vt 0.026894 0.000000
vt 0.761279 0.834713
vt 0.141175 0.070271
vt 0.597489 0.834713
vt 0.857627 0.834713
vt 0.624776 0.834713
vt 0.648898 0.398134
vt 0.669803 0.346522
vt 0.651347 0.513800
vt 0.645129 0.458648
vt 0.084286 0.342136
vt 0.122062 0.399961
vt 0.486973 0.162795
vt 0.392748 0.165747
vt 0.409396 0.655993
vt 0.459045 0.655993
vt 0.352152 0.655993
vt 0.314162 0.655993
vt 0.260418 0.655993
vt 0.507996 0.655993
vt 0.481975 0.655993
vt 0.013017 0.058321
vt 0.700994 0.667799
vt 0.648794 0.667799
vt 0.648794 0.532852
vt 0.624776 0.667799
vt 0.597489 0.667799
vt 0.857627 0.667799
vt 0.801061 0.667799
vt 0.761279 0.667799
vt 0.058321 0.051051
vt 0.801061 0.532852
vt 0.000000 0.174591
vt 0.676267 0.162126
vt 0.352152 0.527716
vt 0.070047 0.017453
vt 0.112175 0.060096
vt 0.459045 0.527716
vt 0.078802 0.226520
vt 0.186981 0.232632
vt 0.188267 0.273171
vt 0.081912 0.270330
vt 0.294213 0.263635
vt 0.294545 0.219715
vt 0.494722 0.277452
vt 0.397099 0.254947
vt 0.395030 0.211530
vt 0.491966 0.232889
vt 0.581963 0.237896
vt 0.582113 0.275579
vt 0.669510 0.277029
vt 0.671874 0.232336
vt 0.001309 0.221616
vt 0.738551 0.269678
vt 0.378499 0.329733
vt 0.396977 0.311229
vt 0.440397 0.364382
vt 0.944529 0.286021
vt 0.880155 0.286021
vt 0.456026 0.448403
vt 0.336624 0.408507
vt 0.784265 0.286021
vt 0.742438 0.323373
vt 0.243509 0.825149
vt 0.029960 0.825149
vt 0.189189 0.825149
vt 0.216243 0.825149
vt 0.052104 0.511375
vt 0.088405 0.825149
vt 0.713531 0.402788
vt 0.754197 0.142308
vt 0.972077 0.142308
vt 0.944529 0.142308
vt 0.916041 0.142308
vt 0.880155 0.142308
vt 0.239998 0.035438
vt 0.916041 0.000003
vt 0.813069 0.000003
vt 0.813069 0.142308
vt 0.784265 0.142308
vt 0.784265 0.000003
vt 0.243509 0.682933
vt 0.029960 0.682933
vt 0.189189 0.682933
vt 0.216243 0.682933
vt 0.122546 0.682933
vt 0.088405 0.682933
vt 0.059100 0.682933
vt 0.290280 0.000003
vt 0.311751 0.000003
vt 0.268309 0.016607
vt 0.268309 0.035108
vt 0.127026 0.467183
vt 0.193768 0.461130
vt 0.261631 0.462585
vt 0.332987 0.456227
vt 0.846636 0.142308
vt 0.846636 0.000003
vt 0.352152 0.845041
vt 0.352152 0.655993
vt 0.087346 0.059945
vt 0.761279 0.667799
vt 0.761279 0.532852
vt 0.074754 0.154173
vt 0.159463 0.682933
vt 0.268309 0.000003
vt 0.159463 0.825149
vt 0.185486 0.185265
vt 0.581732 0.183602
vt 0.059100 0.825149
vt 0.727077 0.363716
vt 0.051270 0.417869
vt 0.057164 0.465725
vt 0.813069 0.286021
vt 0.846636 0.286021
vt 0.454330 0.403385
vt 0.972077 0.286021
vt 0.122546 0.825149
vt 0.710503 0.447543
vt 0.003865 0.342229
vt 0.035194 0.374336
vt 0.754197 0.286021
vt 0.337241 0.502132
vt 0.916041 0.286021
vt 0.350556 0.364650
vt 0.106814 0.098471
vt 0.801061 0.834713
vt 0.352152 0.845041
vt 0.222543 0.067730
vt 0.508875 0.126706
vt 0.507996 0.845041
vt 0.654091 0.126168
vt 0.620399 0.082693
vt 0.700994 0.834713
vt 0.761279 0.834713
vt 0.163199 0.001031
vt 0.260418 0.845041
vt 0.409396 0.845041
vt 0.294047 0.147275
vt 0.459045 0.845041
vt 0.648794 0.834713
vt 0.311751 0.016607
vt 0.029960 0.535761
vt 0.189189 0.535761
vt 0.159463 0.535761
vt 0.218706 0.018487
vt 0.218706 0.035438
vt 0.944529 0.000003
vt 0.261743 0.000003
vt 0.122546 0.535761
vt 0.088405 0.535761
vt 0.243509 0.535761
vt 0.216243 0.535761
vt 1.000000 0.000003
vt 0.880155 0.000003
vt 0.261743 0.035438
vt 0.218706 0.000003
vt 0.000000 0.682933
vt 0.000000 0.535761
vt 0.000000 0.825149
vt 1.000000 0.142308
vt 1.000000 0.286021
vt 0.754197 0.000003
vt 0.005748 0.013017
vt 0.597489 0.532852
vt 0.761279 0.532852
vt 0.064069 0.026894
vt 0.069896 0.042282
vt 0.314162 0.527716
vt 0.481975 0.527716
vt 0.112539 0.000154
vt 0.700994 0.532852
vt 0.037175 0.064069
vt 0.857627 0.532852
vt 0.548722 0.527716
vt 0.409396 0.527716
vt 0.352152 0.527716
vt 0.000000 0.037175
vt 0.129838 0.042647
vt 0.554656 0.667799
vt 0.554656 0.532852
vt 0.554656 0.834713
vt 0.548722 0.655993
vt 0.548722 0.845041
vt 0.260418 0.527716
vt 0.007555 0.266488
vt 0.009706 0.325524
vt 0.745713 0.227904
vt 0.755870 0.333841
vt 0.748213 0.183304
vt 0.410510 0.319992
vt 0.581044 0.016518
vt 0.597078 0.016484
vt 0.565010 0.016613
vt 0.715785 0.492570
vt 0.120944 0.524962
vt 0.511333 0.513574
vt 0.447973 0.492128
vt 0.581282 0.527216
vn 0.358247 0.220578 0.907196
vn -0.001931 0.230451 0.973082
vn -0.000990 -0.048903 0.998803
vn 0.579895 -0.130124 0.804232
vn 0.000749 0.713325 -0.700833
vn 0.000210 0.999887 -0.015013
vn 0.221376 0.974604 -0.033772
vn 0.252877 0.686413 -0.681829
vn 0.382136 -0.181443 -0.906118
vn 0.000491 -0.149839 -0.988710
vn 0.001500 0.052723 -0.998608
vn 0.230506 0.061794 -0.971107
vn -0.863961 -0.499132 -0.066615
vn 0.000000 -1.000000 0.000291
vn 0.000000 -0.660063 -0.751210
vn -0.248710 -0.404617 -0.880016
vn 0.200363 -0.354680 -0.913267
vn 0.696975 -0.696773 0.169513
vn -0.519786 -0.828283 0.209215
vn -0.428108 -0.773941 -0.466625
vn 0.426484 -0.773363 -0.469064
vn 0.518865 -0.829859 0.205213
vn -0.696975 -0.696772 0.169513
vn -0.198153 -0.358682 -0.912186
vn 0.000000 -0.131341 -0.991337
vn 0.393431 -0.142439 -0.908253
vn 0.075715 -0.193087 -0.978256
vn 0.087493 -0.996165 -0.000030
vn -0.985434 -0.160805 -0.055327
vn -0.779772 -0.144677 -0.609117
vn 0.298428 -0.132894 0.945135
vn -0.000000 -0.267050 0.963683
vn -0.000000 -0.775472 0.631382
vn -0.386185 -0.394969 0.833583
vn 0.985243 -0.161070 -0.057909
vn -0.116930 -0.993109 0.007857
vn -0.074616 -0.193674 -0.978224
vn 0.781157 -0.145020 -0.607259
vn -0.298427 -0.132894 0.945135
vn 0.386185 -0.394969 0.833583
vn 0.248710 -0.404617 -0.880016
vn 0.863961 -0.499132 -0.066615
vn -0.393431 -0.142439 -0.908253
vn -0.224978 0.052603 -0.972943
vn -0.380293 -0.189036 -0.905341
vn -0.220589 0.974579 -0.039190
vn -0.248508 0.678148 -0.691635
vn -0.582953 -0.121305 0.803399
vn -0.362568 0.229247 0.903322
vn 0.697593 -0.017774 -0.716273
vn 0.999214 0.003272 -0.039505
vn 0.998791 -0.048795 -0.005898
vn 0.768929 -0.070799 -0.635402
vn 0.051617 -0.128880 0.990316
vn -0.717733 -0.146452 0.680743
vn -0.989600 -0.143410 -0.011189
vn -0.686380 -0.176136 -0.705591
vn 0.267613 -0.118964 -0.956154
vn -0.964015 -0.246867 -0.098650
vn -0.998780 -0.049048 -0.005646
vn -0.769067 -0.070991 -0.635214
vn -0.670625 -0.186520 -0.717964
vn -0.267437 -0.119006 -0.956198
vn 0.686879 -0.175936 -0.705155
vn 0.989611 -0.143308 -0.011518
vn 0.717754 -0.146421 0.680728
vn -0.052277 -0.128999 0.990266
vn -0.001616 -0.346837 0.937924
vn 0.689686 -0.283588 0.666267
vn -0.999214 0.003272 -0.039505
vn -0.697593 -0.017774 -0.716273
vn 0.002782 -0.347059 0.937839
vn -0.688434 -0.283868 0.667441
vn 0.963926 -0.247275 -0.098496
vn 0.671873 -0.186997 -0.716672
vn -0.676644 0.074511 0.732530
vn 0.000000 0.064602 0.997911
vn 0.000000 0.018300 0.999833
vn -0.690657 0.030914 0.722522
vn 0.691308 0.031298 0.721882
vn 0.676644 0.074511 0.732531
vn 0.524416 0.043409 -0.850355
vn 0.997239 0.072891 -0.014183
vn 0.991786 0.126823 -0.016623
vn 0.537946 0.144633 -0.830479
vn -0.000000 0.172506 -0.985009
vn -0.000000 0.038653 -0.999253
vn -0.526400 0.045239 -0.849033
vn -0.537946 0.144633 -0.830479
vn -0.991786 0.126823 -0.016623
vn -0.997079 0.074406 -0.017220
vn -0.152953 -0.978551 0.137996
vn 0.928501 -0.371320 -0.002786
vn -0.071572 -0.682951 -0.726950
vn 0.170691 0.018402 -0.985153
vn 0.431508 0.896565 -0.099864
vn 0.350794 0.618636 -0.703017
vn 0.350043 0.180065 0.919264
vn 0.109848 -0.526955 0.842764
vn -0.929758 -0.368158 0.003060
vn 0.147558 -0.975843 0.161111
vn 0.083112 -0.701888 -0.707422
vn -0.352341 0.197585 0.914777
vn -0.126015 -0.500422 0.856562
vn -0.432870 0.896307 -0.096218
vn -0.351807 0.609905 -0.710104
vn -0.162813 -0.004290 -0.986648
vn -0.498869 -0.853342 0.151450
vn -0.343279 -0.729978 -0.591010
vn 0.077205 -0.165332 -0.983211
vn 0.461054 0.455899 -0.761305
vn 0.624659 0.761572 -0.172657
vn 0.858980 0.492591 -0.139669
vn 0.663367 0.208964 -0.718525
vn 0.175885 0.068994 0.981990
vn 0.217751 0.156284 0.963411
vn -0.259400 -0.524641 0.810841
vn -0.437338 -0.482685 0.758782
vn 0.497088 -0.854980 0.148027
vn 0.346821 -0.730079 -0.588812
vn -0.219514 0.165923 0.961396
vn 0.250668 -0.519564 0.816835
vn -0.627372 0.760880 -0.165730
vn -0.466046 0.449025 -0.762350
vn -0.073365 -0.175543 -0.981734
vn -0.860954 0.491840 -0.129811
vn -0.666231 0.205684 -0.716820
vn -0.173726 0.069677 0.982326
vn 0.435241 -0.483241 0.759634
vn -0.267731 0.778198 0.568092
vn -0.000122 0.784120 0.620609
vn 0.266416 0.772338 0.576642
vn 0.441099 0.729917 0.522161
vn 0.557137 0.665640 0.496510
vn 0.669130 0.511611 0.538999
vn 0.729230 -0.011070 0.684180
vn 0.729552 -0.058582 0.681412
vn 0.704747 -0.331339 0.627332
vn -0.729737 -0.058744 0.681200
vn -0.704576 -0.331214 0.627590
vn -0.729229 -0.011070 0.684180
vn -0.551180 0.666818 0.501552
vn -0.663527 0.508621 0.548668
vn -0.437795 0.733377 0.520090
vn -0.000000 -0.061573 0.998103
vn 0.000000 0.064131 -0.997941
s 1
g pCube1
usemtl initialShadingGroup
f 105/1/1 106/2/2 36/3/3 37/4/4
f 17/5/5 66/236/6 67/234/7 6/8/8
f 38/9/9 39/10/10 96/11/11 97/12/12
f 80/231/13 81/229/14 15/15/15 10/16/16
f 100/17/17 101/18/18 71/19/19 50/186/20
f 53/21/21 91/22/22 111/23/23 112/179/24
f 15/15/15 124/25/25 125/167/26 10/16/16
f 127/27/27 128/28/28 78/29/29 22/208/30
f 131/31/31 132/32/32 14/33/33 11/166/34
f 84/35/35 136/36/36 137/201/37 25/38/38
f 14/33/33 132/32/32 133/163/39 12/40/40
f 9/170/41 15/15/15 81/229/14 82/230/42
f 123/169/43 124/25/25 15/15/15 9/170/41
f 95/44/44 96/11/11 39/10/10 40/45/45
f 65/46/46 66/236/6 17/5/5 5/47/47
f 35/48/48 36/3/3 106/2/2 107/49/49
f 8/177/50 75/175/51 76/52/52 31/53/53
f 130/54/54 131/165/31 11/34/34 33/55/55
f 79/220/56 80/221/13 10/168/16 32/57/57
f 10/168/16 125/26/26 126/58/58 32/57/57
f 85/209/59 86/60/60 27/61/61 23/62/62
f 137/37/37 138/63/63 28/64/64 25/202/38
f 28/64/64 83/217/65 84/218/35 25/202/38
f 29/66/66 134/67/67 135/203/68 26/69/69
f 138/63/63 123/43/43 9/41/41 28/64/64
f 9/41/41 82/219/42 83/217/65 28/64/64
f 12/164/40 133/39/39 134/67/67 29/66/66
f 86/60/60 87/171/70 7/178/71 27/61/61
f 32/57/57 126/58/58 127/207/27 22/30/30
f 78/212/29 79/220/56 32/57/57 22/30/30
f 129/72/72 130/54/54 33/55/55 21/206/73
f 31/53/53 76/52/52 77/213/74 19/75/75
f 115/76/76 116/77/77 139/78/78 140/79/79
f 146/80/80 139/78/78 116/77/77 117/81/81
f 144/82/82 145/83/83 118/84/84 119/85/85
f 119/85/85 120/86/86 143/87/87 144/82/82
f 142/88/88 143/87/87 120/86/86 121/89/89
f 121/89/89 122/225/90 141/91/91 142/88/88
f 73/228/92 74/93/93 38/9/9 42/94/94
f 38/9/9 97/12/12 98/153/95 42/94/94
f 6/8/8 67/234/7 68/235/96 43/97/97
f 104/98/98 105/1/1 37/4/4 41/162/99
f 40/45/45 88/100/100 89/226/101 45/148/102
f 35/48/48 107/49/49 108/149/103 46/158/104
f 94/232/105 65/46/46 5/47/47 48/156/106
f 114/107/107 95/44/44 40/45/45 45/148/102
f 71/191/19 72/198/108 58/109/109 50/20/20
f 58/109/109 99/110/110 100/185/17 50/20/20
f 59/111/111 69/112/112 70/192/113 51/114/114
f 102/115/115 103/116/116 57/117/117 49/118/118
f 45/102/102 89/197/101 90/195/119 62/120/120
f 46/104/104 108/103/103 109/121/121 61/122/122
f 93/123/123 94/155/105 48/106/106 63/124/124
f 113/125/125 114/147/107 45/102/102 62/120/120
f 72/198/108 73/199/92 42/154/94 58/109/109
f 42/154/94 98/95/95 99/110/110 58/109/109
f 43/161/97 68/96/96 69/112/112 59/111/111
f 103/116/116 104/151/98 41/99/99 57/117/117
f 62/120/120 90/195/119 91/196/22 53/180/21
f 112/24/24 113/125/125 62/120/120 53/180/21
f 92/187/126 93/123/123 63/124/124 56/188/127
f 61/122/122 109/121/121 110/181/128 54/190/129
f 3/130/130 18/131/131 66/6/6 65/233/46
f 67/7/7 66/6/6 18/131/131 4/132/132
f 68/160/96 67/7/7 4/132/132 44/133/133
f 69/112/112 68/96/96 44/152/133 60/134/134
f 70/192/113 69/112/112 60/134/134 52/135/135
f 49/194/118 71/19/19 101/18/18 102/183/115
f 57/117/117 72/108/108 71/200/19 49/118/118
f 41/99/99 73/159/92 72/108/108 57/117/117
f 37/4/4 74/93/93 73/92/92 41/162/99
f 117/81/81 118/84/84 145/83/83 146/80/80
f 76/52/52 75/175/51 2/136/136 34/137/137
f 77/213/74 76/52/52 34/137/137 20/214/138
f 78/29/29 128/28/28 129/205/72 21/73/73
f 33/55/55 79/56/56 78/222/29 21/206/73
f 11/34/34 80/174/13 79/56/56 33/55/55
f 14/33/33 81/14/14 80/13/13 11/166/34
f 82/173/42 81/14/14 14/33/33 12/40/40
f 83/65/65 82/42/42 12/164/40 29/66/66
f 84/211/35 83/65/65 29/66/66 26/69/69
f 135/68/68 136/36/36 84/35/35 26/204/69
f 30/139/139 86/60/60 85/209/59 24/140/140
f 1/172/141 87/171/70 86/60/60 30/139/139
f 140/79/79 141/223/91 122/90/90 115/76/76
f 89/157/101 88/224/100 35/48/48 46/158/104
f 90/119/119 89/101/101 46/104/104 61/122/122
f 91/189/22 90/119/119 61/122/122 54/190/129
f 110/128/128 111/23/23 91/22/22 54/129/129
f 64/142/142 93/123/123 92/187/126 55/182/143
f 47/144/144 94/155/105 93/123/123 64/142/142
f 3/130/130 65/233/46 94/105/105 47/150/144
f 5/47/47 17/5/5 96/11/11 95/44/44
f 97/12/12 96/11/11 17/5/5 6/8/8
f 98/153/95 97/12/12 6/8/8 43/97/97
f 99/110/110 98/95/95 43/161/97 59/111/111
f 100/185/17 99/110/110 59/111/111 51/114/114
f 70/113/113 101/18/18 100/17/17 51/193/114
f 102/183/115 101/18/18 70/113/113 52/184/135
f 60/134/134 103/116/116 102/115/115 52/135/135
f 44/152/133 104/151/98 103/116/116 60/134/134
f 4/132/132 105/1/1 104/98/98 44/133/133
f 18/131/131 106/2/2 105/1/1 4/132/132
f 107/49/49 106/2/2 18/131/131 3/130/130
f 108/149/103 107/49/49 3/130/130 47/150/144
f 109/121/121 108/103/103 47/144/144 64/142/142
f 110/181/128 109/121/121 64/142/142 55/182/143
f 92/126/126 111/23/23 110/128/128 55/143/143
f 112/179/24 111/23/23 92/126/126 56/127/127
f 63/124/124 113/125/125 112/24/24 56/188/127
f 48/106/106 114/147/107 113/125/125 63/124/124
f 5/47/47 95/44/44 114/107/107 48/156/106
f 1/141/141 13/145/145 116/77/77 115/76/76
f 117/81/81 116/77/77 13/145/145 2/176/136
f 2/176/136 75/51/51 118/84/84 117/81/81
f 119/85/85 118/84/84 75/51/51 8/50/50
f 16/146/146 120/86/86 119/85/85 8/50/50
f 121/89/89 120/86/86 16/146/146 7/71/71
f 7/71/71 87/227/70 122/225/90 121/89/89
f 115/76/76 122/90/90 87/70/70 1/141/141
f 7/71/71 16/146/146 124/25/25 123/169/43
f 125/167/26 124/25/25 16/146/146 8/50/50
f 126/58/58 125/26/26 8/177/50 31/53/53
f 127/207/27 126/58/58 31/53/53 19/75/75
f 19/216/75 77/74/74 128/28/28 127/27/27
f 129/205/72 128/28/28 77/74/74 20/138/138
f 34/137/137 130/54/54 129/72/72 20/214/138
f 2/136/136 131/165/31 130/54/54 34/137/137
f 2/176/136 13/145/145 132/32/32 131/31/31
f 133/163/39 132/32/32 13/145/145 1/141/141
f 134/67/67 133/39/39 1/172/141 30/139/139
f 135/203/68 134/67/67 30/139/139 24/140/140
f 24/210/140 85/59/59 136/36/36 135/68/68
f 137/201/37 136/36/36 85/59/59 23/215/62
f 27/61/61 138/63/63 137/37/37 23/62/62
f 7/178/71 123/43/43 138/63/63 27/61/61
f 140/79/79 139/78/78 36/3/3 35/48/48
f 88/224/100 141/223/91 140/79/79 35/48/48
f 142/88/88 141/91/91 88/100/100 40/45/45
f 40/45/45 39/10/10 143/87/87 142/88/88
f 144/82/82 143/87/87 39/10/10 38/9/9
f 74/93/93 145/83/83 144/82/82 38/9/9
f 146/80/80 145/83/83 74/93/93 37/4/4
f 37/4/4 36/3/3 139/78/78 146/80/80
