# This file uses centimeters as units for non-parametric coordinates.

mtllib round_head.mtl
g default
v -0.518771 0.832971 0.544385
v 0.518785 0.832966 0.544416
v -0.527375 1.885195 0.534605
v 0.527390 1.885200 0.534635
v -0.523456 1.885431 -0.523179
v 0.523451 1.885431 -0.523178
v -0.523337 0.838611 -0.523059
v 0.523332 0.838611 -0.523058
v -0.639876 2.001136 0.001413
v 0.639189 1.362073 -0.638832
v -0.000003 0.722818 -0.638783
v -0.639195 1.362073 -0.638832
v 0.638772 0.721851 0.002604
v -0.638774 0.721852 0.002599
v -0.000001 0.676837 0.652709
v 0.675295 1.360586 0.649361
v 0.000001 2.000734 0.652750
v -0.675247 1.360586 0.649279
v 0.639873 2.001136 0.001418
v -0.000003 2.001111 -0.638880
v 0.000003 1.367245 0.932976
v -0.000002 2.234527 0.001172
v -0.000003 1.362087 -0.872004
v -0.000003 0.485986 0.002191
v 0.874894 1.361837 0.001715
v -0.874894 1.361837 0.001707
v -0.602912 1.674887 -0.602588
v 0.602906 1.674887 -0.602588
v 0.351096 1.362086 -0.813052
v 0.602846 1.049231 -0.602534
v 0.312763 0.759120 -0.602515
v -0.000003 1.010978 -0.813040
v -0.312768 0.759120 -0.602516
v -0.602852 1.049231 -0.602535
v -0.000003 0.547732 -0.350490
v -0.350188 0.545784 0.002442
v -0.602742 0.758894 -0.312108
v 0.602737 0.758894 -0.312107
v 0.350184 0.545783 0.002443
v 0.601913 0.755453 0.319845
v -0.000002 0.532193 0.354527
v -0.601914 0.755454 0.319839
v 0.814533 1.010550 0.002311
v 0.826231 1.361465 0.353630
v 0.813992 1.362013 -0.350624
v 0.815146 1.712935 0.001763
v -0.814536 1.010551 0.002306
v -0.813996 1.362013 -0.350626
v -0.826228 1.361465 0.353616
v -0.815149 1.712935 0.001758
v -0.296452 0.729824 0.631305
v 0.000003 1.020468 0.879038
v -0.609087 1.047563 0.632223
v 0.296451 0.729823 0.631311
v 0.609090 1.047564 0.632237
v 0.614889 1.671790 0.627364
v 0.315044 1.974613 0.611373
v 0.000003 1.707848 0.855486
v -0.315043 1.974612 0.611365
v -0.614885 1.671790 0.627349
v -0.000001 2.176647 0.354807
v -0.351421 2.175810 0.001059
v -0.605000 1.965388 0.316730
v 0.604998 1.965388 0.316737
v 0.351416 2.175810 0.001061
v 0.603056 1.964868 -0.312418
v 0.312850 1.964855 -0.602619
v -0.000003 2.175362 -0.350732
v -0.312855 1.964855 -0.602619
v -0.603060 1.964868 -0.312419
v -0.000003 1.713152 -0.813061
v -0.351102 1.362086 -0.813052
v -0.320199 0.991213 0.803230
v 0.320220 0.991207 0.803267
v 0.340019 1.718016 0.784179
v -0.339994 1.718009 0.784138
v -0.333014 2.123920 0.335580
v 0.333012 2.123921 0.335585
v 0.332198 2.122445 -0.331735
v -0.332204 2.122445 -0.331736
v -0.332119 1.694169 -0.760162
v 0.332113 1.694169 -0.760162
v 0.332086 1.029970 -0.760129
v -0.332092 1.029970 -0.760129
v -0.331863 0.601014 -0.331283
v 0.331857 0.601014 -0.331283
v 0.327521 0.593735 0.342525
v -0.327524 0.593735 0.342520
v 0.763258 1.029714 0.341777
v 0.760630 1.029873 -0.331359
v 0.760824 1.694091 -0.331539
v 0.765260 1.692506 0.339926
v -0.760634 1.029873 -0.331362
v -0.763246 1.029717 0.341749
v -0.765249 1.692502 0.339900
v -0.760828 1.694090 -0.331541
v 0.366053 1.609021 0.833256
v -0.366036 1.609018 0.833222
v 0.576792 1.580948 0.716040
v 0.126657 1.588084 0.888738
v -0.126638 1.588080 0.888706
v -0.576448 1.580837 0.715499
v 0.114688 1.363556 0.930117
v -0.114678 1.363556 0.930099
v 0.126070 1.149460 0.897345
v -0.126049 1.149465 0.897311
v -0.615883 1.361492 0.732916
v -0.567753 1.133190 0.719843
v 0.615910 1.361491 0.732967
v 0.568138 1.133065 0.720444
v -0.360205 1.115267 0.839766
v 0.360223 1.115264 0.839801
v -0.182859 0.782230 0.737999
v -0.000002 0.755650 0.736510
v 0.000001 0.890336 0.823644
v -0.189698 0.870173 0.796055
v 0.182857 0.782230 0.738003
v 0.189697 0.870173 0.796060
v -0.374438 1.163536 0.761499
v -0.165336 1.171612 0.807980
v -0.160409 1.363484 0.835433
v -0.388782 1.362184 0.787720
v -0.555249 1.160552 0.654963
v -0.587165 1.362055 0.675059
v -0.562492 1.554657 0.651979
v -0.375706 1.564750 0.758925
v -0.165551 1.562466 0.804446
v 0.165578 1.562471 0.804495
v 0.160424 1.363484 0.835462
v 0.388840 1.362183 0.787819
v 0.375732 1.564754 0.758973
v 0.587204 1.362055 0.675127
v 0.562837 1.554764 0.652522
v 0.555633 1.160431 0.655565
v 0.374466 1.163532 0.761549
v 0.165365 1.171605 0.808032
v -0.162135 0.779859 0.678673
v -0.000002 0.768586 0.689809
v -0.000002 0.850714 0.740690
v -0.168381 0.855758 0.725553
v 0.162131 0.779859 0.678674
v 0.168380 0.855758 0.725555
vt 0.276410 0.507547
vt 0.324090 0.500275
vt 0.322968 0.547905
vt 0.270236 0.553939
vt 0.354517 0.517990
vt 0.375797 0.515733
vt 0.375676 0.529397
vt 0.351116 0.526282
vt 0.313094 0.579349
vt 0.342379 0.585008
vt 0.345802 0.611958
vt 0.312975 0.610777
vt 0.286422 0.580878
vt 0.281537 0.609933
vt 0.397034 0.518361
vt 0.400288 0.526712
vt 0.427764 0.501183
vt 0.475312 0.509281
vt 0.480689 0.555756
vt 0.428055 0.548821
vt 0.477363 0.611228
vt 0.468417 0.572818
vt 0.490460 0.611043
vt 0.375402 0.560569
vt 0.431387 0.568326
vt 0.394735 0.578789
vt 0.407245 0.640555
vt 0.404099 0.612465
vt 0.436941 0.611856
vt 0.437041 0.643712
vt 0.469201 0.648321
vt 0.480926 0.665906
vt 0.430753 0.673388
vt 0.475642 0.711823
vt 0.429632 0.718540
vt 0.374489 0.666466
vt 0.374046 0.718604
vt 0.284857 0.637799
vt 0.312325 0.642639
vt 0.342176 0.639988
vt 0.318122 0.672411
vt 0.318472 0.717579
vt 0.268100 0.664056
vt 0.272589 0.710068
vt 0.315411 0.766472
vt 0.224621 0.720368
vt 0.373611 0.769416
vt 0.373139 0.824548
vt 0.312791 0.821237
vt 0.164373 0.723296
vt 0.431854 0.767475
vt 0.523435 0.722949
vt 0.583627 0.726910
vt 0.433536 0.822274
vt 0.430322 0.877609
vt 0.372660 0.880577
vt 0.642130 0.722014
vt 0.683794 0.711207
vt 0.516594 0.097119
vt 0.472582 0.067113
vt 0.315057 0.876621
vt 0.105963 0.717397
vt 0.242592 0.094627
vt 0.211320 0.120869
vt 0.267660 0.139959
vt 0.053298 0.663944
vt 0.441889 0.114635
vt 0.413962 0.168843
vt 0.288172 0.190772
vt 0.049072 0.605071
vt 0.490702 0.141986
vt 0.695703 0.669472
vt 0.700938 0.610683
vt 0.469266 0.192416
vt 0.447411 0.242369
vt 0.364120 0.226096
vt 0.695509 0.551913
vt 0.683389 0.510224
vt 0.432884 0.290321
vt 0.377890 0.282555
vt 0.309113 0.241115
vt 0.055509 0.546402
vt 0.322763 0.289325
vt 0.281734 0.296356
vt 0.320978 0.340088
vt 0.110185 0.495050
vt 0.377391 0.337272
vt 0.376883 0.393264
vt 0.317026 0.395373
vt 0.168683 0.491337
vt 0.433745 0.341103
vt 0.641724 0.499632
vt 0.583299 0.494917
vt 0.436695 0.396442
vt 0.433696 0.451992
vt 0.376400 0.447179
vt 0.523376 0.498724
vt 0.375984 0.494366
vt 0.319027 0.450979
vt 0.228535 0.496172
vt 0.532566 0.552213
vt 0.587920 0.550266
vt 0.590923 0.611028
vt 0.536649 0.611103
vt 0.643352 0.553027
vt 0.646919 0.610867
vt 0.643471 0.668689
vt 0.587875 0.671699
vt 0.532349 0.669793
vt 0.107639 0.548410
vt 0.163110 0.546600
vt 0.159061 0.607303
vt 0.103079 0.606181
vt 0.218422 0.549496
vt 0.259497 0.609043
vt 0.213323 0.608310
vt 0.216616 0.667066
vt 0.161070 0.668019
vt 0.105535 0.664056
vt 0.431966 0.655512
vt 0.394384 0.647966
vt 0.317214 0.654519
vt 0.354912 0.647623
vt 0.280105 0.646686
vt 0.374946 0.612857
vt 0.390303 0.612335
vt 0.359601 0.612068
vt 0.355755 0.578451
vt 0.272579 0.609453
vt 0.282191 0.571198
vt 0.468393 0.611554
vt 0.464599 0.639350
vt 0.319297 0.567346
vt 0.437362 0.580444
vt 0.464015 0.582428
vt 0.407989 0.585578
vt 0.375857 0.508812
vt 0.345749 0.515480
vt 0.344937 0.533015
vt 0.375569 0.541583
vt 0.405846 0.516007
vt 0.406349 0.533553
vt 0.491717 0.399950
vt 0.261953 0.397889
vt 0.392687 0.226351
vt 0.343898 0.168211
vt 0.316965 0.113503
vt 0.372198 0.934571
vt 0.287144 0.065429
vt 0.487269 0.460545
vt 0.486413 0.340899
vt 0.473779 0.298096
vt 0.265310 0.458579
vt 0.268324 0.338930
vt 0.068344 0.504926
vt 0.496033 0.263446
vt 0.520234 0.214775
vt 0.538518 0.163679
vt 0.472620 0.918106
vt 0.547381 0.123927
vt 0.260115 0.261303
vt 0.236806 0.212198
vt 0.219456 0.160776
vt 0.272072 0.916388
vt 0.064490 0.705877
vt 0.483617 0.876577
vt 0.488799 0.818321
vt 0.485242 0.758678
vt 0.261788 0.874675
vt 0.257605 0.816338
vt 0.262184 0.756759
vt 0.430868 0.929755
vt 0.313618 0.928750
vn -0.599555 -0.594579 0.535733
vn -0.369110 -0.753781 0.543665
vn -0.396193 -0.440562 0.805565
vn -0.745038 -0.369623 0.555246
vn -0.093168 -0.526472 0.845072
vn -0.000005 -0.528775 0.848762
vn -0.000005 -0.528774 0.848762
vn -0.093168 -0.526472 0.845072
vn -0.354884 -0.148962 0.922967
vn -0.205641 -0.138114 0.968832
vn -0.207627 0.007697 0.978178
vn -0.358246 0.004195 0.933618
vn -0.493368 -0.156080 0.855702
vn -0.499004 0.003455 0.866593
vn 0.093157 -0.526478 0.845070
vn 0.093157 -0.526478 0.845070
vn 0.369091 -0.753803 0.543647
vn 0.599549 -0.594602 0.535714
vn 0.745084 -0.369852 0.555032
vn 0.395955 -0.441047 0.805417
vn 0.819215 -0.008518 0.573423
vn 0.651298 -0.338652 0.679062
vn 0.873400 -0.005567 0.486972
vn -0.000059 -0.284595 0.958648
vn 0.352062 -0.390044 0.850834
vn 0.105485 -0.243375 0.964179
vn 0.205181 0.148168 0.967444
vn 0.207462 0.007705 0.978213
vn 0.357549 0.004251 0.933885
vn 0.347977 0.154797 0.924635
vn 0.656461 0.350935 0.667760
vn 0.743117 0.372112 0.556156
vn 0.291745 0.526686 0.798427
vn 0.587820 0.599290 0.543433
vn 0.281587 0.709840 0.645628
vn -0.000043 0.506935 0.861984
vn -0.000021 0.731052 0.682322
vn -0.492164 0.159355 0.855792
vn -0.348594 0.155403 0.924301
vn -0.205346 0.148085 0.967421
vn -0.291919 0.526369 0.798573
vn -0.281618 0.709812 0.645645
vn -0.743078 0.371894 0.556354
vn -0.587821 0.599266 0.543458
vn -0.311286 0.901048 0.302015
vn -0.679301 0.681925 0.271160
vn -0.000004 0.945626 0.325255
vn -0.000001 0.999998 -0.001945
vn -0.335369 0.942084 -0.002147
vn -0.706633 0.707575 -0.002819
vn 0.311278 0.901054 0.302007
vn 0.679294 0.681941 0.271138
vn 0.706629 0.707578 -0.002827
vn 0.335368 0.942085 -0.002149
vn 0.311871 0.897419 -0.312051
vn -0.000000 0.942026 -0.335540
vn 0.677696 0.678260 -0.284064
vn 0.577278 0.577439 -0.577334
vn 0.283425 0.678214 -0.678009
vn 0.000000 0.707215 -0.706998
vn -0.311871 0.897419 -0.312051
vn -0.677697 0.678259 -0.284063
vn -0.283424 0.678214 -0.678009
vn -0.577277 0.577440 -0.577334
vn -0.311880 0.311889 -0.897472
vn -0.677933 0.283610 -0.678212
vn 0.000000 0.335461 -0.942054
vn 0.000000 -0.000039 -1.000000
vn -0.335469 -0.000061 -0.942051
vn -0.706965 -0.000173 -0.707249
vn 0.311881 0.311889 -0.897472
vn 0.677933 0.283609 -0.678213
vn 0.706965 -0.000173 -0.707249
vn 0.335470 -0.000061 -0.942051
vn 0.311941 -0.311962 -0.897425
vn 0.000000 -0.335492 -0.942043
vn 0.678016 -0.283875 -0.678019
vn 0.577490 -0.577390 -0.577171
vn 0.283836 -0.677838 -0.678213
vn 0.000000 -0.706795 -0.707419
vn -0.311940 -0.311963 -0.897426
vn -0.678016 -0.283875 -0.678019
vn -0.283835 -0.677838 -0.678213
vn -0.577489 -0.577390 -0.577172
vn -0.313707 -0.895990 -0.314310
vn -0.678208 -0.677752 -0.284054
vn 0.000000 -0.940807 -0.338943
vn -0.000000 -0.999871 -0.016028
vn -0.342546 -0.939442 -0.010575
vn -0.707589 -0.706617 -0.003147
vn 0.313706 -0.895990 -0.314310
vn 0.678207 -0.677752 -0.284056
vn 0.707586 -0.706621 -0.003156
vn 0.342544 -0.939442 -0.010577
vn 0.334559 -0.901375 0.274941
vn -0.000003 -0.959909 0.280312
vn 0.682333 -0.680273 0.267675
vn -0.000003 -0.898211 0.439565
vn -0.334569 -0.901369 0.274948
vn -0.682341 -0.680257 0.267696
vn 0.898049 -0.331435 0.289239
vn 0.939733 -0.341846 -0.006521
vn 0.999938 -0.001235 -0.011077
vn 0.954115 -0.002551 0.299428
vn 0.896525 -0.313604 -0.312884
vn 0.941344 -0.000481 -0.337447
vn 0.896555 0.312889 -0.313512
vn 0.940202 0.340529 -0.007739
vn 0.899598 0.329015 0.287181
vn -0.896526 -0.313603 -0.312881
vn -0.939735 -0.341843 -0.006505
vn -0.999938 -0.001235 -0.011062
vn -0.941345 -0.000480 -0.337444
vn -0.898045 -0.331413 0.289278
vn -0.873062 -0.005565 0.487577
vn -0.954098 -0.002551 0.299482
vn -0.899593 0.328993 0.287220
vn -0.940203 0.340526 -0.007725
vn -0.896556 0.312889 -0.313510
vn 0.328533 0.460685 0.824521
vn 0.080075 0.326504 0.941798
vn -0.329076 0.459440 0.825000
vn -0.080222 0.326487 0.941791
vn -0.655776 0.349761 0.669048
vn -0.000113 0.032722 0.999464
vn -0.000767 0.025634 0.999671
vn 0.000540 0.025634 0.999671
vn -0.105637 -0.243344 0.964170
vn -0.817260 -0.008521 0.576206
vn -0.650611 -0.337260 0.680412
vn 0.497809 0.003538 0.867279
vn 0.491145 0.158062 0.856617
vn -0.352673 -0.388522 0.851277
vn 0.354196 -0.148222 0.923350
vn 0.492248 -0.154587 0.856619
vn 0.205476 -0.138187 0.968857
vn -0.000008 -0.777887 0.628404
vn -0.000008 -0.777887 0.628404
vn -0.301120 -0.660294 0.687996
vn -0.290529 -0.414033 0.862653
vn -0.000047 -0.319797 0.947486
vn 0.301049 -0.660331 0.687992
vn 0.290418 -0.414126 0.862645
vn -0.185247 0.883455 0.430339
vn -0.185247 0.883455 0.430339
vn -0.185247 0.883455 0.430339
vn -0.185247 0.883455 0.430339
vn -0.908642 -0.025370 0.416805
vn -0.908642 -0.025370 0.416805
vn -0.908642 -0.025370 0.416805
vn -0.908642 -0.025370 0.416805
vn -0.233153 0.858644 0.456476
vn -0.233153 0.858644 0.456476
vn -0.233153 0.858644 0.456476
vn -0.233153 0.858644 0.456476
vn 0.927287 0.146097 0.344667
vn 0.927287 0.146097 0.344667
vn 0.927287 0.146097 0.344667
vn 0.927287 0.146097 0.344667
vn 0.930124 -0.110312 0.350288
vn 0.930123 -0.110312 0.350288
vn 0.930124 -0.110312 0.350288
vn 0.930124 -0.110312 0.350288
vn -0.166716 -0.880043 0.444668
vn -0.166716 -0.880043 0.444668
vn -0.166716 -0.880043 0.444668
vn -0.166716 -0.880043 0.444668
vn -0.905351 0.035762 0.423156
vn -0.905351 0.035762 0.423156
vn -0.905351 0.035762 0.423156
vn -0.905351 0.035762 0.423156
vn -0.143786 -0.888546 0.435673
vn -0.143786 -0.888546 0.435673
vn -0.143786 -0.888546 0.435673
vn -0.143786 -0.888546 0.435673
vn 0.905299 0.035703 0.423271
vn 0.905299 0.035703 0.423271
vn 0.905299 0.035703 0.423271
vn 0.905299 0.035703 0.423271
vn 0.143796 -0.888507 0.435750
vn 0.143796 -0.888507 0.435750
vn 0.143796 -0.888507 0.435750
vn 0.143796 -0.888507 0.435750
vn -0.930244 -0.109698 0.350160
vn -0.930244 -0.109698 0.350160
vn -0.930244 -0.109698 0.350160
vn -0.930244 -0.109698 0.350160
vn 0.165870 -0.880127 0.444818
vn 0.165870 -0.880127 0.444818
vn 0.165870 -0.880127 0.444818
vn 0.165870 -0.880127 0.444818
vn 0.232025 0.858856 0.456651
vn 0.232025 0.858856 0.456651
vn 0.232025 0.858856 0.456651
vn 0.232025 0.858857 0.456651
vn -0.927444 0.145407 0.344536
vn -0.927444 0.145407 0.344536
vn -0.927444 0.145407 0.344536
vn -0.927444 0.145407 0.344535
vn 0.185257 0.883415 0.430416
vn 0.185257 0.883415 0.430416
vn 0.185257 0.883415 0.430416
vn 0.185257 0.883415 0.430416
vn 0.908591 -0.025295 0.416921
vn 0.908591 -0.025295 0.416921
vn 0.908591 -0.025295 0.416921
vn 0.908591 -0.025295 0.416921
vn 0.105008 0.987337 0.118910
vn 0.105008 0.987337 0.118910
vn 0.105008 0.987337 0.118910
vn 0.105008 0.987337 0.118910
vn 0.000190 -0.943221 0.332164
vn 0.000190 -0.943222 0.332164
vn 0.000190 -0.943221 0.332164
vn 0.000190 -0.943222 0.332164
vn 0.938167 -0.130450 0.320663
vn 0.938167 -0.130450 0.320663
vn 0.938167 -0.130450 0.320663
vn 0.938167 -0.130450 0.320663
vn -0.105006 0.987337 0.118910
vn -0.105006 0.987337 0.118910
vn -0.105006 0.987337 0.118910
vn -0.105006 0.987337 0.118910
vn -0.938168 -0.130438 0.320665
vn -0.938168 -0.130438 0.320665
vn -0.938168 -0.130438 0.320665
vn -0.938168 -0.130438 0.320665
vn -0.000200 -0.943223 0.332161
vn -0.000200 -0.943223 0.332161
vn -0.000200 -0.943223 0.332161
vn -0.000200 -0.943223 0.332161
s 1
g pCube3
usemtl initialShadingGroup
f 1/1/1 51/2/2 73/3/3 53/4/4
s 2
f 137/5/5 138/6/6 139/7/7 140/8/8
s 3
f 119/9/9 120/10/10 121/11/11 122/12/12
f 123/13/13 119/9/9 122/12/12 124/14/14
s 2
f 138/6/6 141/15/15 142/16/16 139/7/7
s 1
f 54/17/17 2/18/18 55/19/19 74/20/20
f 109/21/21 110/22/22 55/19/19 16/23/23
f 52/24/24 74/20/20 112/25/25 105/26/26
s 6
f 128/27/27 129/28/28 130/29/29 131/30/30
s 1
f 99/31/31 109/21/21 16/23/23 56/32/32
f 75/33/33 56/32/32 4/34/34 57/35/35
f 58/36/36 75/33/33 57/35/35 17/37/37
s 3
f 125/38/38 124/14/14 122/12/12 126/39/39
f 122/12/12 121/11/11 127/40/40 126/39/39
s 1
f 76/41/41 58/36/36 17/37/37 59/42/42
f 60/43/43 76/41/41 59/42/42 3/44/44
f 3/44/44 59/42/42 77/45/45 63/171/46
f 59/42/42 17/37/37 61/47/47 77/45/45
f 77/45/45 61/47/47 22/48/48 62/49/49
f 63/171/46 77/45/45 62/49/49 9/170/50
f 17/37/37 57/35/35 78/51/51 61/47/47
f 57/35/35 4/34/34 64/168/52 78/51/51
f 78/51/51 64/168/52 19/167/53 65/54/54
f 61/47/47 78/51/51 65/54/54 22/48/48
f 22/48/48 65/54/54 79/55/55 68/56/56
f 65/54/54 19/167/53 66/166/57 79/55/55
f 79/55/55 66/166/57 6/159/58 67/172/59
f 68/56/56 79/55/55 67/172/59 20/148/60
f 9/170/50 62/49/49 80/61/61 70/169/62
f 62/49/49 22/48/48 68/56/56 80/61/61
f 80/61/61 68/56/56 20/148/60 69/173/63
f 70/169/62 80/61/61 69/173/63 5/164/64
f 5/64/64 69/63/63 81/65/65 27/163/66
f 69/63/63 20/149/60 71/147/67 81/65/65
f 81/65/65 71/147/67 23/146/68 72/69/69
f 27/163/66 81/65/65 72/69/69 12/162/70
f 20/60/60 67/59/59 82/71/71 71/67/67
f 67/59/59 6/160/58 28/158/72 82/71/71
f 82/71/71 28/158/72 10/157/73 29/74/74
f 71/67/67 82/71/71 29/74/74 23/68/68
f 23/68/68 29/74/74 83/75/75 32/145/76
f 29/74/74 10/157/73 30/156/77 83/75/75
f 83/75/75 30/156/77 8/152/78 31/79/79
f 32/145/76 83/75/75 31/79/79 11/80/80
f 12/162/70 72/69/69 84/81/81 34/161/82
f 72/69/69 23/146/68 32/76/76 84/81/81
f 84/81/81 32/76/76 11/80/80 33/83/83
f 34/161/82 84/81/81 33/83/83 7/84/84
f 7/84/84 33/83/83 85/85/85 37/154/86
f 33/83/83 11/80/80 35/87/87 85/85/85
f 85/85/85 35/87/87 24/88/88 36/89/89
f 37/154/86 85/85/85 36/89/89 14/144/90
f 11/80/80 31/79/79 86/91/91 35/87/87
f 31/79/79 8/152/78 38/151/92 86/91/91
f 86/91/91 38/151/92 13/143/93 39/94/94
f 35/87/87 86/91/91 39/94/94 24/88/88
f 24/88/88 39/94/94 87/95/95 41/96/96
f 39/94/94 13/143/93 40/150/97 87/95/95
f 87/95/95 40/150/97 2/18/18 54/17/17
f 41/96/96 87/95/95 54/17/17 15/98/98
f 14/144/90 36/89/89 88/99/99 42/153/100
f 36/89/89 24/88/88 41/96/96 88/99/99
f 88/99/99 41/96/96 15/98/98 51/2/2
f 42/153/100 88/99/99 51/2/2 1/1/1
f 2/18/18 40/97/97 89/101/101 55/19/19
f 40/97/97 13/93/93 43/102/102 89/101/101
f 89/101/101 43/102/102 25/103/103 44/104/104
f 55/19/19 89/101/101 44/104/104 16/23/23
f 13/93/93 38/92/92 90/105/105 43/102/102
f 38/92/92 8/78/78 30/77/77 90/105/105
f 90/105/105 30/77/77 10/73/73 45/106/106
f 43/102/102 90/105/105 45/106/106 25/103/103
f 25/103/103 45/106/106 91/107/107 46/108/108
f 45/106/106 10/73/73 28/72/72 91/107/107
f 91/107/107 28/72/72 6/58/58 66/57/57
f 46/108/108 91/107/107 66/57/57 19/53/53
f 16/23/23 44/104/104 92/109/109 56/32/32
f 44/104/104 25/103/103 46/108/108 92/109/109
f 92/109/109 46/108/108 19/53/53 64/52/52
f 56/32/32 92/109/109 64/52/52 4/34/34
f 7/155/84 37/86/86 93/110/110 34/82/82
f 37/86/86 14/90/90 47/111/111 93/110/110
f 93/110/110 47/111/111 26/112/112 48/113/113
f 34/82/82 93/110/110 48/113/113 12/70/70
f 14/90/90 42/100/100 94/114/114 47/111/111
f 42/100/100 1/1/1 53/4/4 94/114/114
f 94/114/114 53/4/4 18/115/115 49/116/116
f 47/111/111 94/114/114 49/116/116 26/112/112
f 26/112/112 49/116/116 95/117/117 50/118/118
f 49/116/116 18/115/115 60/43/43 95/117/117
f 95/117/117 60/43/43 3/44/44 63/46/46
f 50/118/118 95/117/117 63/46/46 9/50/50
f 12/70/70 48/113/113 96/119/119 27/66/66
f 48/113/113 26/112/112 50/118/118 96/119/119
f 96/119/119 50/118/118 9/50/50 70/62/62
f 27/66/66 96/119/119 70/62/62 5/165/64
f 97/120/120 99/31/31 56/32/32 75/33/33
f 58/36/36 100/121/121 97/120/120 75/33/33
f 98/122/122 101/123/123 58/36/36 76/41/41
f 60/43/43 102/124/124 98/122/122 76/41/41
f 21/125/125 103/126/126 100/121/121 58/36/36
f 52/24/24 105/26/26 103/126/126 21/125/125
f 104/127/127 106/128/128 52/24/24 21/125/125
f 101/123/123 104/127/127 21/125/125 58/36/36
f 18/115/115 107/129/129 102/124/124 60/43/43
f 53/4/4 108/130/130 107/129/129 18/115/115
s 6
f 130/29/29 132/131/131 133/132/132 131/30/30
s 1
f 74/20/20 55/19/19 110/22/22 112/25/25
f 53/4/4 73/3/3 111/133/133 108/130/130
f 73/3/3 52/24/24 106/128/128 111/133/133
s 6
f 135/134/134 134/135/135 132/131/131 130/29/29
f 136/136/136 135/134/134 130/29/29 129/28/28
s 1
f 51/2/2 15/98/137 114/137/138 113/138/139
f 52/24/24 73/3/3 116/139/140 115/140/141
f 73/3/3 51/2/2 113/138/139 116/139/140
f 15/98/137 54/17/17 117/141/142 114/137/138
f 54/17/17 74/20/20 118/142/143 117/141/142
f 74/20/20 52/24/24 115/140/141 118/142/143
s off
f 111/133/144 106/128/145 120/10/146 119/9/147
f 106/128/148 104/127/149 121/11/150 120/10/151
f 108/130/152 111/133/153 119/9/154 123/13/155
f 107/129/156 108/130/157 123/13/158 124/14/159
f 102/124/160 107/129/161 124/14/162 125/38/163
f 98/122/164 102/124/165 125/38/166 126/39/167
f 104/127/168 101/123/169 127/40/170 121/11/171
f 101/123/172 98/122/173 126/39/174 127/40/175
f 100/121/176 103/126/177 129/28/178 128/27/179
f 97/120/180 100/121/181 128/27/182 131/30/183
f 109/21/184 99/31/185 133/132/186 132/131/187
f 99/31/188 97/120/189 131/30/190 133/132/191
f 112/25/192 110/22/193 134/135/194 135/134/195
f 110/22/196 109/21/197 132/131/198 134/135/199
f 105/26/200 112/25/201 135/134/202 136/136/203
f 103/126/204 105/26/205 136/136/206 129/28/207
f 113/138/208 114/137/209 138/6/210 137/5/211
f 115/140/212 116/139/213 140/8/214 139/7/215
f 116/139/216 113/138/217 137/5/218 140/8/219
f 114/137/220 117/141/221 141/15/222 138/6/223
f 117/141/224 118/142/225 142/16/226 141/15/227
f 118/142/228 115/140/229 139/7/230 142/16/231
