# This file uses centimeters as units for non-parametric coordinates.

mtllib long_3.mtl
g default
v -1.293172 0.000000 0.548463
v -0.744820 0.000000 1.096815
v -1.132564 0.000000 0.936207
v 1.293172 0.000000 0.548463
v 1.132564 0.000000 0.936207
v 0.744819 0.000000 1.096815
v -1.293172 0.000000 -0.548463
v -1.132564 0.000000 -0.936207
v -0.744820 0.000000 -1.096815
v 1.293172 0.000000 -0.548463
v 0.744819 0.000000 -1.096815
v 1.132564 0.000000 -0.936207
v -0.744820 0.000000 0.548463
v 0.744819 0.000000 0.548463
v -0.744820 0.000000 -0.548462
v 0.744819 0.000000 -0.548462
v -0.940789 8.502296 1.385398
v 0.940788 8.502296 1.385398
v -0.940789 8.502296 -1.385398
v 0.940788 8.502296 -1.385398
v 1.633418 8.502296 0.692769
v 1.633418 8.502296 -0.692769
v -1.633418 8.502296 -0.692769
v -1.633418 8.502296 0.692769
v -1.430552 8.502296 1.182532
v 1.430552 8.502296 1.182532
v -1.430552 8.502296 -1.182532
v 1.430552 8.502296 -1.182532
v -0.940790 8.502296 0.692769
v -0.940790 8.502296 -0.692769
v 0.940786 8.502296 0.692769
v 0.940788 8.502296 -0.692767
vt 0.236207 0.019608
vt 0.370377 0.744312
vt 0.058957 0.019608
vt 0.159917 0.744312
vt 0.754646 0.744312
vt 0.620597 0.019608
vt 0.445859 0.019608
vt 0.544609 0.744312
vt 0.159917 0.019608
vt 0.236207 0.744312
vt 0.370377 0.019608
vt 0.445859 0.744312
vt 0.058957 0.744312
vt 0.754646 0.019608
vt 0.620597 0.744312
vt 0.544609 0.019608
vt 0.234002 0.978752
vt 0.078605 0.980392
vt 0.020797 0.923793
vt 0.019589 0.809363
vt 0.076189 0.751555
vt 0.231586 0.749915
vt 0.289393 0.806515
vt 0.290601 0.920944
vt 0.765862 0.881607
vt 0.764717 0.791015
vt 0.809431 0.745156
vt 0.932455 0.743600
vt 0.978315 0.788314
vt 0.979460 0.878906
vt 0.934746 0.924765
vt 0.811722 0.926321
vt 0.964646 0.756460
vt 0.198145 0.019608
vt 0.198145 0.744312
vt 0.035917 0.768737
vt 0.777576 0.758825
vt 0.408116 0.019608
vt 0.408116 0.744312
vt 0.272212 0.766242
vt 0.037979 0.964065
vt 0.792716 0.744312
vt 0.019589 0.744312
vt 0.792716 0.019608
vt 0.966601 0.911096
vt 0.019589 0.019608
vt 0.274274 0.961570
vt 0.582544 0.744312
vt 0.582544 0.019608
vt 0.779531 0.913462
vt 0.232190 0.807118
vt 0.233398 0.921548
vt 0.076793 0.808759
vt 0.078001 0.923189
vt 0.933028 0.788887
vt 0.810003 0.790443
vt 0.934173 0.879479
vt 0.811149 0.881034
vn 0.000000 -0.033922 0.999424
vn -0.086535 -0.035787 0.995606
vn -0.083859 -0.035733 0.995837
vn 0.000000 -0.033922 0.999425
vn 0.000000 -0.033922 -0.999424
vn 0.086535 -0.035787 -0.995606
vn 0.083859 -0.035733 -0.995837
vn 0.000000 -0.033922 -0.999425
vn 0.999200 -0.039986 0.000000
vn 0.993245 -0.041586 0.108330
vn 0.993433 -0.041565 0.106599
vn 0.999200 -0.039986 0.000000
vn -0.999200 -0.039986 0.000000
vn -0.993245 -0.041586 -0.108330
vn -0.993433 -0.041565 -0.106599
vn -0.999200 -0.039986 0.000000
vn -0.923008 -0.043426 0.382321
vn -0.923008 -0.043426 0.382321
vn -0.923009 -0.043426 0.382321
vn -0.923008 -0.043426 0.382321
vn -0.382374 -0.040146 0.923135
vn -0.382374 -0.040146 0.923135
vn 0.382373 -0.040146 0.923135
vn 0.382373 -0.040146 0.923135
vn 0.382373 -0.040146 0.923135
vn 0.382373 -0.040146 0.923135
vn 0.923008 -0.043426 0.382321
vn 0.923008 -0.043426 0.382321
vn -0.923008 -0.043426 -0.382321
vn -0.923008 -0.043426 -0.382321
vn -0.382374 -0.040146 -0.923135
vn -0.382374 -0.040146 -0.923135
vn -0.382374 -0.040146 -0.923135
vn -0.382374 -0.040146 -0.923135
vn 0.382373 -0.040146 -0.923135
vn 0.382373 -0.040146 -0.923135
vn 0.923008 -0.043426 -0.382321
vn 0.923008 -0.043426 -0.382321
vn 0.923008 -0.043426 -0.382321
vn 0.923009 -0.043426 -0.382321
vn 0.000000 1.000000 0.000000
vn 0.000000 1.000000 0.000000
vn 0.000000 1.000000 0.000000
vn 0.000000 1.000000 0.000001
vn 0.000000 -1.000000 0.000000
vn 0.000000 -1.000000 0.000000
vn 0.000000 -1.000000 0.000000
vn 0.000000 -1.000000 0.000000
vn 0.000000 1.000000 -0.000000
vn 0.000000 1.000000 -0.000000
vn 0.000000 1.000000 0.000000
vn 0.000000 1.000000 0.000000
vn 0.000000 1.000000 0.000000
vn 0.000000 1.000000 0.000001
vn 0.000000 1.000000 -0.000000
vn 0.000000 1.000000 -0.000000
vn 0.000000 1.000000 -0.000001
vn 0.000000 1.000000 -0.000000
vn 0.000000 1.000000 -0.000000
vn 0.000000 1.000000 -0.000001
vn 0.000000 -1.000000 0.000000
vn 0.000000 -1.000000 0.000000
vn 0.000000 -1.000000 0.000000
vn 0.000000 -1.000000 0.000000
vn 0.000000 -1.000000 0.000000
vn 0.000000 -1.000000 0.000000
vn 0.000000 -1.000000 0.000000
vn 0.000000 -1.000000 0.000000
vn 0.000000 -1.000000 0.000000
vn 0.000000 -1.000000 0.000000
vn 0.000000 -1.000000 0.000000
vn 0.000000 -1.000000 0.000000
s 1
g pCube11
usemtl initialShadingGroup
f 18/2/1 17/10/2 2/1/3 6/11/4
s 2
f 19/5/5 20/15/6 11/6/7 9/14/8
s 3
f 22/8/9 21/12/10 4/7/11 10/16/12
s 4
f 24/4/13 23/13/14 7/3/15 1/9/16
s off
f 25/35/17 24/4/18 1/9/19 3/34/20
s 1
f 2/1/3 17/10/2 25/35/21 3/34/22
s off
f 26/39/23 18/2/24 6/11/25 5/38/26
s 3
f 4/7/11 21/12/10 26/39/27 5/38/28
s 4
f 7/3/15 23/13/14 27/43/29 8/46/30
s off
f 8/44/31 27/42/32 19/5/33 9/14/34
s 2
f 11/6/7 20/15/6 28/48/35 12/49/36
s off
f 12/49/37 28/48/38 22/8/39 10/16/40
s 5
f 17/21/41 29/53/42 24/20/43 25/36/44
s 6
f 14/56/45 4/26/46 5/37/47 6/27/48
s 5
f 29/53/42 30/54/49 23/19/50 24/20/43
f 21/23/51 31/51/52 18/22/53 26/40/54
f 22/24/55 32/52/56 31/51/52 21/23/51
f 28/47/57 20/17/58 32/52/56 22/24/55
f 23/19/50 30/54/49 19/18/59 27/41/60
f 18/22/53 31/51/52 29/53/42 17/21/41
f 31/51/52 32/52/56 30/54/49 29/53/42
f 19/18/59 30/54/49 32/52/56 20/17/58
s 6
f 1/29/61 13/55/62 2/28/63 3/33/64
f 13/55/62 14/56/45 6/27/48 2/28/63
f 7/30/65 15/57/66 13/55/62 1/29/61
f 15/57/66 16/58/67 14/56/45 13/55/62
f 10/25/68 4/26/46 14/56/45 16/58/67
f 9/31/69 15/57/66 7/30/65 8/45/70
f 11/32/71 16/58/67 15/57/66 9/31/69
f 10/25/68 16/58/67 11/32/71 12/50/72
