# This file uses centimeters as units for non-parametric coordinates.

mtllib star_head.mtl
g default
v -0.000026 2.102711 -0.333713
v 0.443082 1.631278 -0.329308
v 0.999733 1.441367 -0.314768
v 0.610276 1.038790 -0.318827
v 0.549853 0.430778 -0.315133
v 0.000009 0.672551 -0.327479
v -0.443176 1.631230 -0.329308
v -0.999739 1.441306 -0.314768
v -0.610289 1.038729 -0.318827
v -0.549780 0.430743 -0.315133
v 0.656480 1.012624 0.422155
v 0.561203 0.418242 0.422155
v 0.000368 0.634502 0.422155
v 0.471583 1.648960 0.422155
v 1.017863 1.440692 0.422155
v -0.000251 2.107381 0.422155
v -0.656132 1.012049 0.422155
v -0.560765 0.418037 0.422155
v -0.472210 1.648533 0.422155
v -1.017920 1.440337 0.422155
v -0.000005 1.465775 -0.348569
v -0.000288 1.468251 0.428375
v 0.382602 1.108164 0.425338
v 0.189539 1.057556 0.446166
v 0.331297 1.297946 0.425926
v 0.147552 1.252540 0.448022
v -0.155016 1.264746 0.445983
v -0.178104 1.065951 0.448151
v -0.342678 1.289264 0.425336
v -0.373873 1.096952 0.425944
v -0.434348 1.277584 0.422155
v -0.390090 1.200437 0.423785
v -0.123641 1.159916 0.456664
v 0.000029 1.129590 0.465273
v 0.126143 1.146924 0.456677
v 0.389449 1.216230 0.423721
v 0.434253 1.278168 0.422155
v -0.260702 0.896576 0.427257
v -0.275189 1.038695 0.434015
v -0.242793 1.315070 0.432240
v -0.191554 1.510328 0.422460
v 0.261364 0.896821 0.427229
v 0.288484 1.042387 0.432471
v 0.229163 1.312818 0.433882
v 0.190835 1.510447 0.422466
v 0.138103 1.148568 0.455862
v 0.231274 1.301932 0.434511
v 0.153039 1.244534 0.448751
v 0.290919 1.055457 0.432941
v 0.195215 1.070250 0.446887
v 0.369154 1.112856 0.425494
v 0.384090 1.208822 0.423908
v 0.326978 1.287140 0.426042
v -0.386667 1.194470 0.423911
v -0.245572 1.304479 0.432770
v -0.338909 1.278810 0.425428
v -0.276629 1.052824 0.434687
v -0.360869 1.100864 0.426119
v -0.135534 1.162832 0.455836
v -0.183292 1.078492 0.448907
v -0.161331 1.256439 0.446701
v 0.166816 1.153238 0.432025
v 0.265037 1.171623 0.417381
v 0.240738 1.274496 0.415601
v 0.178693 1.229168 0.426827
v 0.287931 1.079356 0.414064
v 0.212064 1.091184 0.425197
v 0.349975 1.124683 0.407337
v 0.361852 1.200613 0.405677
v 0.316604 1.262668 0.407987
v -0.364211 1.186406 0.405684
v -0.265038 1.171608 0.417373
v -0.254921 1.276839 0.413776
v -0.328301 1.254287 0.407219
v -0.273751 1.076971 0.415902
v -0.341616 1.112960 0.408125
v -0.164461 1.167403 0.431980
v -0.200371 1.099522 0.427108
v -0.187056 1.240850 0.424870
v 0.679129 0.962475 0.020650
v 1.138869 1.477753 0.016772
v 0.450986 1.726914 0.020502
v -0.000070 2.263440 0.018425
v -0.451302 1.726720 0.020502
v -1.138886 1.477639 0.016772
v -0.678993 0.962203 0.020650
v -0.605083 0.246131 0.018553
v 0.000169 0.513099 0.024003
v 0.605224 0.246198 0.018553
vt 0.061410 0.096675
vt 0.061410 0.196942
vt 0.000000 0.196942
vt 0.000000 0.096675
vt 0.061410 0.000004
vt 0.000000 0.000004
vt 0.061410 0.292985
vt 0.061410 0.394465
vt 0.000000 0.394465
vt 0.000000 0.292985
vt 0.061410 0.499838
vt 0.000000 0.499838
vt 0.000000 0.802301
vt 0.061410 0.802301
vt 0.061410 0.902770
vt 0.000000 0.902770
vt 0.061410 1.000000
vt 0.000000 1.000000
vt 0.000000 0.605653
vt 0.061410 0.605653
vt 0.061410 0.706675
vt 0.000000 0.706675
vt 0.443049 0.155787
vt 0.503804 0.093987
vt 0.528945 0.185879
vt 0.752482 0.158244
vt 0.666131 0.186964
vt 0.692721 0.095482
vt 0.513932 0.000000
vt 0.598711 0.038104
vt 0.684078 0.001350
vt 0.596954 0.259362
vt 0.597736 0.160822
vt 0.355419 0.190885
vt 0.349382 0.133909
vt 0.382230 0.091620
vt 0.439482 0.156688
vt 0.178599 0.094735
vt 0.212693 0.135962
vt 0.208393 0.193125
vt 0.123372 0.161627
vt 0.366017 0.000002
vt 0.320602 0.074194
vt 0.279528 0.034488
vt 0.239705 0.075427
vt 0.191945 0.002705
vt 0.283020 0.262473
vt 0.281472 0.164039
vt 0.311171 0.170032
vt 0.307476 0.115096
vt 0.321139 0.117495
vt 0.319057 0.134506
vt 0.309497 0.126206
vt 0.251952 0.170943
vt 0.226808 0.120981
vt 0.240429 0.118761
vt 0.242484 0.135790
vt 0.231950 0.130751
vt 0.323481 0.094942
vt 0.303843 0.094548
vt 0.343617 0.122820
vt 0.335166 0.141640
vt 0.316028 0.147005
vt 0.299222 0.134940
vt 0.280673 0.111213
vt 0.294853 0.113260
vt 0.266706 0.114462
vt 0.262416 0.136142
vt 0.245665 0.148218
vt 0.226521 0.142866
vt 0.217980 0.123996
vt 0.238179 0.096127
vt 0.219997 0.103956
vt 0.238407 0.107351
vt 0.229163 0.110377
vt 0.257652 0.095713
vt 0.312683 0.105376
vt 0.323366 0.106117
vt 0.341574 0.102695
vt 0.248969 0.106708
vt 0.254107 0.116495
vt 0.252007 0.127584
vt 0.332468 0.109205
vt 0.334747 0.119842
vt 0.329536 0.129569
vt 0.304738 0.130035
vt 0.317985 0.140432
vt 0.301799 0.114254
vt 0.323903 0.100743
vt 0.309132 0.100336
vt 0.336453 0.106248
vt 0.339399 0.121176
vt 0.332162 0.134453
vt 0.229360 0.135634
vt 0.243604 0.141701
vt 0.222166 0.122325
vt 0.225175 0.107421
vt 0.237843 0.101966
vt 0.259779 0.115623
vt 0.252479 0.101635
vt 0.256797 0.131380
vt 0.119372 0.196942
vt 0.119372 0.292985
vt 0.119372 0.394465
vt 0.119372 0.499838
vt 0.119372 0.605653
vt 0.119372 0.706675
vt 0.119372 0.802301
vt 0.119372 0.902770
vt 0.119372 1.000000
vt 0.119372 0.000004
vt 0.119372 0.096675
vn 0.992709 -0.116313 -0.031633
vn 0.922321 -0.383863 -0.044425
vn 0.900049 -0.413942 0.136249
vn 0.984971 -0.127328 0.116704
vn 0.000095 -0.999487 -0.032046
vn -0.390225 -0.920573 -0.016431
vn -0.363688 -0.881010 0.302577
vn -0.000014 -0.945853 0.324595
vn 0.342085 0.939565 -0.013964
vn 0.578637 0.815276 -0.022452
vn 0.531233 0.827914 0.179861
vn 0.342685 0.923158 0.174200
vn 0.745111 -0.665917 -0.036939
vn 0.746767 -0.649424 0.143485
vn 0.740177 0.672195 -0.017111
vn 0.721493 0.669609 0.176273
vn -0.899990 -0.414025 0.136383
vn -0.922243 -0.384068 -0.044264
vn -0.992710 -0.116425 -0.031178
vn -0.984887 -0.127446 0.117283
vn 0.363786 -0.881118 0.302144
vn 0.390260 -0.920550 -0.016862
vn -0.531333 0.827847 0.179873
vn -0.578806 0.815155 -0.022506
vn -0.342171 0.939538 -0.013677
vn -0.342774 0.923052 0.174589
vn -0.746708 -0.649555 0.143198
vn -0.745053 -0.665970 -0.037156
vn -0.721650 0.669553 0.175843
vn -0.740228 0.672129 -0.017477
vn 0.022218 -0.011415 -0.999688
vn 0.022218 -0.011415 -0.999688
vn 0.022218 -0.011415 -0.999688
vn -0.022221 -0.011417 -0.999688
vn -0.022221 -0.011417 -0.999688
vn -0.022221 -0.011417 -0.999688
vn 0.018950 -0.007957 -0.999789
vn 0.018950 -0.007957 -0.999789
vn 0.018950 -0.007957 -0.999789
vn -0.018950 -0.007960 -0.999789
vn -0.018950 -0.007960 -0.999789
vn -0.018950 -0.007960 -0.999789
vn -0.000003 0.023318 -0.999728
vn 0.035558 -0.009128 -0.999326
vn 0.000001 -0.010663 -0.999943
vn -0.035554 -0.009132 -0.999326
vn -0.000000 -0.018460 -0.999830
vn -0.035785 -0.018449 -0.999189
vn 0.035790 -0.018446 -0.999189
vn 0.005943 0.003426 0.999977
vn 0.004894 0.000554 0.999988
vn 0.003599 -0.003277 0.999988
vn 0.000001 0.000000 1.000000
vn -0.003695 -0.003323 0.999988
vn -0.004575 0.000712 0.999989
vn -0.005815 0.003283 0.999978
vn -0.000001 0.000000 1.000000
vn 0.004489 -0.007789 0.999960
vn 0.016280 -0.017840 0.999708
vn 0.000075 -0.017351 0.999849
vn -0.016753 -0.018607 0.999687
vn -0.004507 -0.007836 0.999959
vn 0.011563 0.004223 0.999924
vn -0.000129 0.023647 0.999720
vn 0.014150 0.014881 0.999789
vn 0.346807 0.077978 0.934690
vn 0.140410 0.048348 0.988912
vn 0.163297 -0.168394 0.972100
vn 0.312503 -0.064226 0.947743
vn -0.014261 0.014274 0.999796
vn -0.011568 0.004218 0.999924
vn 0.145241 0.000740 0.989396
vn -0.127563 0.022028 0.991586
vn -0.128746 -0.176424 0.975858
vn 0.057660 -0.137485 0.988824
vn 0.048579 -0.035594 0.998185
vn 0.073169 -0.082819 0.993875
vn 0.022139 0.008758 0.999717
vn 0.022259 0.015041 0.999639
vn 0.024907 0.053211 0.998273
vn 0.035736 0.097068 0.994636
vn 0.000524 -0.022431 0.999748
vn 0.055786 -0.018165 0.998278
vn -0.052574 -0.003378 0.998611
vn -0.036825 0.097862 0.994518
vn -0.023748 0.046696 0.998627
vn -0.021246 0.012821 0.999692
vn -0.020661 0.011465 0.999721
vn -0.053601 -0.043384 0.997620
vn -0.025920 -0.001173 0.999663
vn -0.097097 0.236483 0.966772
vn 0.086084 0.156968 0.983845
vn -0.072047 -0.081863 0.994036
vn 0.252566 0.199997 0.946685
vn 0.058891 0.232135 0.970899
vn 0.146485 -0.000353 0.989213
vn 0.023727 0.000901 0.999718
vn -0.280407 0.180555 0.942747
vn -0.350502 0.048606 0.935300
vn -0.292286 -0.088675 0.952211
vn 0.116256 -0.002176 0.993217
vn -0.109491 0.128282 0.985675
vn -0.138634 -0.033021 0.989793
vn 0.106969 0.041919 0.993378
vn -0.027028 -0.154033 0.987696
vn 0.095137 0.109387 0.989436
vn 0.095137 0.109387 0.989436
vn 0.031284 0.072327 0.996890
vn 0.031284 0.072327 0.996890
vn 0.127133 -0.085709 0.988176
vn 0.127133 -0.085709 0.988176
vn 0.062742 -0.070598 0.995530
vn 0.062742 -0.070598 0.995530
vn 0.075870 0.011850 0.997047
vn 0.075870 0.011850 0.997047
vn 0.016246 0.013961 0.999771
vn 0.016246 0.013961 0.999771
vn 0.034950 -0.001922 0.999387
vn 0.034950 -0.001922 0.999387
vn 0.086496 0.025397 0.995928
vn 0.086496 0.025397 0.995928
vn -0.056636 0.013045 0.998310
vn -0.087545 0.066137 0.993963
vn -0.019697 0.014099 0.999707
vn -0.063373 0.011643 0.997922
vn -0.104680 -0.036952 0.993819
vn -0.043774 0.015812 0.998916
vn -0.087165 -0.068729 0.993820
vn -0.060744 0.099595 0.993172
vn 0.256855 -0.492202 0.831723
vn 0.559312 -0.213983 0.800863
vn 0.617096 0.130600 0.775975
vn 0.434403 0.458457 0.775314
vn -0.020994 0.621528 0.783111
vn -0.509029 0.362728 0.780589
vn -0.582176 -0.162634 0.796631
vn -0.221358 -0.513449 0.829078
vn -0.201079 -0.515324 0.833071
vn 0.282631 -0.490143 0.824548
vn 0.602215 -0.098701 0.792209
vn 0.464122 0.418246 0.780808
vn -0.047986 0.620165 0.783003
vn -0.472887 0.420597 0.774258
vn -0.622694 0.085980 0.777727
vn -0.534809 -0.256813 0.805001
vn 0.876789 -0.409977 -0.251316
vn 0.709043 -0.655954 -0.258808
vn 0.324306 0.913156 -0.246925
vn 0.532233 0.808060 -0.252520
vn 0.726439 0.642865 -0.242921
vn -0.726406 0.642836 -0.243097
vn -0.532405 0.807944 -0.252529
vn -0.324363 0.913173 -0.246785
vn -0.709023 -0.655935 -0.258913
vn -0.876699 -0.410199 -0.251267
vn -0.971101 -0.098849 -0.217238
vn 0.368658 -0.842270 -0.393284
vn 0.000145 -0.906141 -0.422976
vn -0.368669 -0.842360 -0.393080
vn 0.971057 -0.098761 -0.217473
s 1
g star_head:polySurface4
usemtl star_head:initialShadingGroup
f 89/1/1 80/2/2 11/3/3 12/4/4
s 2
f 88/5/5 89/1/6 12/4/7 13/6/8
s 3
f 81/7/9 82/8/10 14/9/11 15/10/12
s 1
f 80/2/2 81/7/13 15/10/14 11/3/3
s 3
f 82/8/10 83/11/15 16/12/16 14/9/11
s 4
f 17/13/17 86/14/18 87/15/19 18/16/20
s 2
f 18/16/21 87/15/22 88/17/5 13/18/8
s 5
f 19/19/23 84/20/24 85/21/25 20/22/26
s 4
f 20/22/27 85/21/28 86/14/18 17/13/17
s 5
f 16/12/29 83/11/30 84/20/24 19/19/23
s off
f 3/23/31 4/24/32 2/25/33
f 8/26/34 7/27/35 9/28/36
f 5/29/37 6/30/38 4/24/39
f 10/31/40 9/28/41 6/30/42
s 6
f 1/32/43 2/25/44 21/33/45
f 1/32/43 21/33/45 7/27/46
f 21/33/45 6/30/47 9/28/48 7/27/46
f 2/25/44 4/24/49 6/30/47 21/33/45
s 7
f 14/34/50 37/35/51 11/36/52 15/37/53
f 17/38/54 31/39/55 19/40/56 20/41/57
f 12/42/58 11/36/52 42/43/59 13/44/60
f 13/44/60 38/45/61 17/38/54 18/46/62
f 16/47/63 22/48/64 45/49/65 14/34/50
s 12
f 62/50/66 63/51/67 64/52/68 65/53/69
s 7
f 19/40/56 41/54/70 22/48/64 16/47/71
s 14
f 71/55/72 72/56/73 73/57/74 74/58/75
s 7
f 13/44/60 42/43/59 43/59/76 24/60/77
f 36/61/78 37/35/51 14/34/50 25/62/79
f 44/63/80 45/49/65 22/48/64 26/64/81
f 22/48/64 34/65/82 35/66/83 26/64/81
f 33/67/84 34/65/82 22/48/64 27/68/85
f 40/69/86 41/54/70 19/40/56 29/70/87
f 19/40/56 31/39/55 32/71/88 29/70/87
f 17/38/54 38/45/61 39/72/89 30/73/90
f 32/71/88 31/39/55 17/38/54 30/73/90
s 14
f 75/74/91 72/56/73 71/55/72 76/75/92
s 7
f 13/44/60 34/65/82 33/67/84 28/76/93
f 35/66/83 34/65/82 13/44/60 24/60/77
s 12
f 67/77/94 66/78/95 63/51/96 62/50/66
s 7
f 11/36/52 37/35/51 36/61/78 23/79/97
f 39/72/89 38/45/61 13/44/60 28/76/93
s 14
f 78/80/98 77/81/99 72/56/73 75/74/91
f 73/57/74 72/56/73 77/81/99 79/82/100
s 7
f 22/48/64 41/54/70 40/69/86 27/68/85
f 43/59/76 42/43/59 11/36/52 23/79/97
s 12
f 63/51/101 66/78/95 68/83/102 69/84/103
f 64/52/68 63/51/104 69/84/103 70/85/105
s 7
f 14/34/50 45/49/65 44/63/80 25/62/79
f 44/63/80 26/64/81 48/86/106 47/87/107
f 26/64/81 35/66/83 46/88/108 48/86/109
f 24/60/77 43/59/76 49/89/110 50/90/111
f 35/66/83 24/60/77 50/90/112 46/88/113
f 43/59/76 23/79/97 51/91/114 49/89/115
f 23/79/97 36/61/78 52/92/116 51/91/117
f 36/61/78 25/62/79 53/93/118 52/92/119
f 25/62/79 44/63/80 47/87/120 53/93/121
f 40/69/86 29/70/87 56/94/122 55/95/123
f 29/70/87 32/71/88 54/96/124 56/94/122
f 32/71/88 30/73/90 58/97/125 54/96/124
f 30/73/90 39/72/89 57/98/126 58/97/125
f 28/76/93 33/67/84 59/99/127 60/100/128
f 39/72/89 28/76/93 60/100/128 57/98/126
f 33/67/84 27/68/85 61/101/129 59/99/127
f 27/68/85 40/69/86 55/95/123 61/101/129
s 12
f 47/87/130 48/86/131 65/53/69 64/52/68
f 48/86/131 46/88/132 62/50/66 65/53/69
f 50/90/133 49/89/134 66/78/95 67/77/94
f 46/88/132 50/90/133 67/77/94 62/50/66
f 49/89/134 51/91/135 68/83/102 66/78/95
f 51/91/135 52/92/136 69/84/103 68/83/102
f 52/92/136 53/93/137 70/85/105 69/84/103
f 53/93/137 47/87/130 64/52/68 70/85/105
s 14
f 55/95/138 56/94/139 74/58/75 73/57/74
f 56/94/139 54/96/140 71/55/72 74/58/75
f 54/96/140 58/97/141 76/75/92 71/55/72
f 58/97/141 57/98/142 75/74/91 76/75/92
f 60/100/143 59/99/144 77/81/99 78/80/98
f 57/98/142 60/100/143 78/80/98 75/74/91
f 59/99/144 61/101/145 79/82/100 77/81/99
f 61/101/145 55/95/138 73/57/74 79/82/100
s 1
f 4/102/146 3/103/147 81/7/13 80/2/2
s 3
f 3/103/148 2/104/149 82/8/10 81/7/9
f 2/104/149 1/105/150 83/11/15 82/8/10
s 5
f 84/20/24 83/11/30 1/105/151 7/106/152
f 85/21/25 84/20/24 7/106/152 8/107/153
s 4
f 86/14/18 85/21/28 8/107/154 9/108/155
f 87/15/19 86/14/18 9/108/155 10/109/156
s 2
f 88/17/5 87/15/22 10/109/157 6/110/158
f 6/111/158 5/112/159 89/1/6 88/5/5
s 1
f 5/112/160 4/102/146 80/2/2 89/1/1
